<svg width="251" height="58" viewBox="0 0 251 58" fill="none" xmlns="http://www.w3.org/2000/svg">
<path d="M70.3409 30.6591V46H64.1705V11.0909H70.2045V24.267H70.5114C71.125 22.7898 72.0739 21.625 73.358 20.7727C74.6534 19.9091 76.3011 19.4773 78.3011 19.4773C80.1193 19.4773 81.7045 19.8579 83.0568 20.6193C84.4091 21.3807 85.4545 22.4943 86.1932 23.9602C86.9432 25.4261 87.3182 27.2159 87.3182 29.3295V46H81.1477V30.2841C81.1477 28.5227 80.6932 27.1534 79.7841 26.1761C78.8864 25.1875 77.625 24.6932 76 24.6932C74.9091 24.6932 73.9318 24.9318 73.0682 25.4091C72.2159 25.875 71.5455 26.5511 71.0568 27.4375C70.5795 28.3239 70.3409 29.3977 70.3409 30.6591ZM105.199 46.5114C102.574 46.5114 100.307 45.9659 98.3977 44.875C96.5 43.7727 95.0398 42.2159 94.017 40.2045C92.9943 38.1818 92.4829 35.8011 92.4829 33.0625C92.4829 30.3693 92.9943 28.0057 94.017 25.9716C95.0511 23.9261 96.4943 22.3352 98.3466 21.1989C100.199 20.0511 102.375 19.4773 104.875 19.4773C106.489 19.4773 108.011 19.7386 109.443 20.2614C110.886 20.7727 112.159 21.5682 113.261 22.6477C114.375 23.7273 115.25 25.1023 115.886 26.7727C116.523 28.4318 116.841 30.4091 116.841 32.7045V34.5966H95.3807V30.4375H110.926C110.915 29.2557 110.659 28.2045 110.159 27.2841C109.659 26.3523 108.96 25.6193 108.062 25.0852C107.176 24.5511 106.142 24.2841 104.96 24.2841C103.699 24.2841 102.591 24.5909 101.636 25.2045C100.682 25.8068 99.9375 26.6023 99.4034 27.5909C98.8807 28.5682 98.6136 29.642 98.6023 30.8125V34.4432C98.6023 35.9659 98.8807 37.2727 99.4375 38.3636C99.9943 39.4432 100.773 40.2727 101.773 40.8523C102.773 41.4204 103.943 41.7045 105.284 41.7045C106.182 41.7045 106.994 41.5795 107.722 41.3295C108.449 41.0682 109.08 40.6875 109.614 40.1875C110.148 39.6875 110.551 39.0682 110.824 38.3295L116.585 38.9773C116.222 40.5 115.528 41.8295 114.506 42.9659C113.494 44.0909 112.199 44.9659 110.619 45.5909C109.04 46.2045 107.233 46.5114 105.199 46.5114ZM131.777 46.4602C129.72 46.4602 127.879 45.9318 126.254 44.875C124.629 43.8182 123.345 42.2841 122.402 40.2727C121.459 38.2614 120.987 35.8182 120.987 32.9432C120.987 30.0341 121.464 27.5795 122.419 25.5795C123.385 23.5682 124.686 22.0511 126.322 21.0284C127.959 19.9943 129.783 19.4773 131.794 19.4773C133.328 19.4773 134.589 19.7386 135.578 20.2614C136.567 20.7727 137.351 21.392 137.93 22.1193C138.51 22.8352 138.959 23.5114 139.277 24.1477H139.533V11.0909H145.72V46H139.652V41.875H139.277C138.959 42.5114 138.499 43.1875 137.896 43.9034C137.294 44.6079 136.499 45.2102 135.51 45.7102C134.521 46.2102 133.277 46.4602 131.777 46.4602ZM133.499 41.3977C134.805 41.3977 135.919 41.0454 136.839 40.3409C137.76 39.625 138.459 38.6307 138.936 37.3579C139.413 36.0852 139.652 34.6023 139.652 32.9091C139.652 31.2159 139.413 29.7443 138.936 28.4943C138.47 27.2443 137.777 26.2727 136.857 25.5795C135.947 24.8864 134.828 24.5398 133.499 24.5398C132.124 24.5398 130.976 24.8977 130.055 25.6136C129.135 26.3295 128.442 27.3182 127.976 28.5795C127.51 29.8409 127.277 31.2841 127.277 32.9091C127.277 34.5454 127.51 36.0057 127.976 37.2898C128.453 38.5625 129.152 39.5682 130.072 40.3068C131.004 41.0341 132.146 41.3977 133.499 41.3977ZM168.983 34.9886V19.8182H175.153V46H169.17V41.3466H168.898C168.307 42.8125 167.335 44.0114 165.983 44.9432C164.642 45.875 162.989 46.3409 161.023 46.3409C159.307 46.3409 157.79 45.9602 156.472 45.1989C155.165 44.4261 154.142 43.3068 153.403 41.8409C152.665 40.3636 152.295 38.5795 152.295 36.4886V19.8182H158.466V35.5341C158.466 37.1932 158.92 38.5114 159.83 39.4886C160.739 40.4659 161.932 40.9545 163.409 40.9545C164.318 40.9545 165.199 40.7329 166.051 40.2898C166.903 39.8466 167.602 39.1875 168.148 38.3125C168.705 37.4261 168.983 36.3182 168.983 34.9886ZM187.669 11.0909V46H181.499V11.0909H187.669ZM205.605 46.5114C202.98 46.5114 200.713 45.9659 198.804 44.875C196.906 43.7727 195.446 42.2159 194.423 40.2045C193.401 38.1818 192.889 35.8011 192.889 33.0625C192.889 30.3693 193.401 28.0057 194.423 25.9716C195.457 23.9261 196.901 22.3352 198.753 21.1989C200.605 20.0511 202.781 19.4773 205.281 19.4773C206.895 19.4773 208.418 19.7386 209.849 20.2614C211.293 20.7727 212.565 21.5682 213.668 22.6477C214.781 23.7273 215.656 25.1023 216.293 26.7727C216.929 28.4318 217.247 30.4091 217.247 32.7045V34.5966H195.787V30.4375H211.332C211.321 29.2557 211.065 28.2045 210.565 27.2841C210.065 26.3523 209.366 25.6193 208.469 25.0852C207.582 24.5511 206.548 24.2841 205.366 24.2841C204.105 24.2841 202.997 24.5909 202.043 25.2045C201.088 25.8068 200.344 26.6023 199.81 27.5909C199.287 28.5682 199.02 29.642 199.008 30.8125V34.4432C199.008 35.9659 199.287 37.2727 199.844 38.3636C200.401 39.4432 201.179 40.2727 202.179 40.8523C203.179 41.4204 204.349 41.7045 205.69 41.7045C206.588 41.7045 207.401 41.5795 208.128 41.3295C208.855 41.0682 209.486 40.6875 210.02 40.1875C210.554 39.6875 210.957 39.0682 211.23 38.3295L216.991 38.9773C216.628 40.5 215.935 41.8295 214.912 42.9659C213.901 44.0909 212.605 44.9659 211.026 45.5909C209.446 46.2045 207.639 46.5114 205.605 46.5114ZM222.74 46V11.0909H235.831C238.513 11.0909 240.763 11.5568 242.581 12.4886C244.41 13.4204 245.791 14.7273 246.723 16.4091C247.666 18.0795 248.138 20.0284 248.138 22.2557C248.138 24.4943 247.66 26.4375 246.706 28.0852C245.763 29.7216 244.371 30.9886 242.53 31.8864C240.689 32.7727 238.428 33.2159 235.746 33.2159H226.422V27.9659H234.893C236.462 27.9659 237.746 27.75 238.746 27.3182C239.746 26.875 240.484 26.2329 240.962 25.392C241.45 24.5398 241.695 23.4943 241.695 22.2557C241.695 21.017 241.45 19.9602 240.962 19.0852C240.473 18.1989 239.729 17.5284 238.729 17.0739C237.729 16.608 236.439 16.375 234.859 16.375H229.064V46H222.74ZM240.774 30.1818L249.416 46H242.359L233.871 30.1818H240.774Z" fill="black"/>
<path d="M46.7816 16C35.8508 16 27 23.3882 27 32.5C27 41.6118 35.8508 49 46.7816 49C52.1452 49 57.0043 47.2174 60.5712 44.3299C61.0138 43.969 61.1288 43.4092 60.8456 42.9525C60.5624 42.4958 59.9517 42.2379 59.341 42.3263C58.4736 42.4516 57.5885 42.5179 56.6769 42.5179C48.1004 42.5179 41.1436 36.7134 41.1436 29.5536C41.1436 24.7067 44.3299 20.4859 49.0474 18.2614C49.5873 18.0036 49.8617 17.4879 49.7289 16.9871C49.5962 16.4862 49.0828 16.1105 48.4633 16.0663C47.9057 16.0295 47.3481 16.0074 46.7816 16.0074V16Z" fill="black"/>
<path d="M23.8636 26.7386L18.2386 27.3523C18.0795 26.7841 17.8011 26.25 17.4034 25.75C17.017 25.25 16.4943 24.8466 15.8352 24.5398C15.1761 24.233 14.3693 24.0795 13.4148 24.0795C12.1307 24.0795 11.0511 24.358 10.1761 24.9148C9.3125 25.4716 8.88636 26.1932 8.89773 27.0795C8.88636 27.8409 9.16477 28.4602 9.73295 28.9375C10.3125 29.4148 11.267 29.8068 12.5966 30.1136L17.0625 31.0682C19.5398 31.6023 21.3807 32.4489 22.5852 33.608C23.8011 34.767 24.4148 36.2841 24.4261 38.1591C24.4148 39.8068 23.9318 41.2614 22.9773 42.5227C22.0341 43.7727 20.7216 44.75 19.0398 45.4545C17.358 46.1591 15.4261 46.5114 13.2443 46.5114C10.0398 46.5114 7.46023 45.8409 5.50568 44.5C3.55114 43.1477 2.38636 41.267 2.01136 38.858L8.02841 38.2784C8.30114 39.4602 8.88068 40.3523 9.76705 40.9545C10.6534 41.5568 11.8068 41.858 13.2273 41.858C14.6932 41.858 15.8693 41.5568 16.7557 40.9545C17.6534 40.3523 18.1023 39.608 18.1023 38.7216C18.1023 37.9716 17.8125 37.3523 17.233 36.8636C16.6648 36.375 15.7784 36 14.5739 35.7386L10.108 34.8011C7.59659 34.2784 5.73864 33.3977 4.53409 32.1591C3.32955 30.9091 2.73295 29.3295 2.74432 27.4205C2.73295 25.8068 3.17045 24.4091 4.05682 23.2273C4.95455 22.0341 6.19886 21.1136 7.78977 20.4659C9.39205 19.8068 11.2386 19.4773 13.3295 19.4773C16.3977 19.4773 18.8125 20.1307 20.5739 21.4375C22.3466 22.7443 23.4432 24.5114 23.8636 26.7386Z" fill="black"/>
</svg>
